G04 EAGLE Gerber X2 export*
%TF.Part,Single*%
%TF.FileFunction,Copper,L2,Bot,Mixed*%
%TF.FilePolarity,Positive*%
%TF.GenerationSoftware,Autodesk,EAGLE,8.6.0*%
%TF.CreationDate,2018-07-05T08:20:44Z*%
G75*
%MOMM*%
%FSLAX34Y34*%
%LPD*%
%AMOC8*
5,1,8,0,0,1.08239X$1,22.5*%
G01*
%ADD10C,1.700000*%
%ADD11C,0.800000*%


D10*
X14500Y103000D03*
X14500Y77500D03*
X14500Y52000D03*
X14500Y26500D03*
X14500Y1000D03*
X14500Y-24500D03*
X14500Y-50000D03*
X14500Y-75500D03*
X-270500Y103000D03*
X-270500Y77500D03*
X-270500Y52000D03*
X-270500Y26500D03*
X-270500Y1000D03*
X-270500Y-24500D03*
X-270500Y-50000D03*
X-270500Y-75500D03*
X94100Y-101100D03*
X94100Y-75600D03*
X94100Y-50100D03*
X94100Y-24600D03*
X94100Y900D03*
X94100Y26400D03*
X94100Y51900D03*
X94100Y77400D03*
X94100Y102900D03*
X-315400Y-192000D03*
X-340900Y-192000D03*
X164000Y6100D03*
X164000Y-19400D03*
X91250Y-156000D03*
X116750Y-156000D03*
X142250Y-156000D03*
X167750Y-156000D03*
X-321500Y-108400D03*
X-321500Y-133900D03*
X-336000Y-31000D03*
X-336000Y-5500D03*
X-336000Y-56500D03*
X-335500Y79500D03*
X-335500Y105000D03*
X-335500Y54000D03*
X-101000Y-115000D03*
D11*
X-191500Y-24500D01*
X-270500Y-24500D01*
X-10000Y-24500D02*
X14500Y-24500D01*
X-10000Y-24500D02*
X-10000Y103000D01*
X14500Y103000D01*
D10*
X58000Y103000D03*
D11*
X14500Y103000D01*
X-340900Y-192000D02*
X-341337Y-191995D01*
X-341774Y-191979D01*
X-342211Y-191952D01*
X-342647Y-191916D01*
X-343082Y-191868D01*
X-343515Y-191810D01*
X-343947Y-191742D01*
X-344377Y-191663D01*
X-344806Y-191574D01*
X-345232Y-191474D01*
X-345655Y-191364D01*
X-346076Y-191244D01*
X-346493Y-191114D01*
X-346908Y-190974D01*
X-347318Y-190824D01*
X-347725Y-190664D01*
X-348128Y-190494D01*
X-348527Y-190314D01*
X-348922Y-190125D01*
X-349311Y-189927D01*
X-349696Y-189719D01*
X-350076Y-189502D01*
X-350450Y-189275D01*
X-350819Y-189040D01*
X-351182Y-188796D01*
X-351539Y-188543D01*
X-351890Y-188282D01*
X-352234Y-188012D01*
X-352572Y-187734D01*
X-352903Y-187448D01*
X-353226Y-187154D01*
X-353543Y-186852D01*
X-353852Y-186543D01*
X-354154Y-186226D01*
X-354448Y-185903D01*
X-354734Y-185572D01*
X-355012Y-185234D01*
X-355282Y-184890D01*
X-355543Y-184539D01*
X-355796Y-184182D01*
X-356040Y-183819D01*
X-356275Y-183450D01*
X-356502Y-183076D01*
X-356719Y-182696D01*
X-356927Y-182311D01*
X-357125Y-181922D01*
X-357314Y-181527D01*
X-357494Y-181128D01*
X-357664Y-180725D01*
X-357824Y-180318D01*
X-357974Y-179908D01*
X-358114Y-179493D01*
X-358244Y-179076D01*
X-358364Y-178655D01*
X-358474Y-178232D01*
X-358574Y-177806D01*
X-358663Y-177377D01*
X-358742Y-176947D01*
X-358810Y-176515D01*
X-358868Y-176082D01*
X-358916Y-175647D01*
X-358952Y-175211D01*
X-358979Y-174774D01*
X-358995Y-174337D01*
X-359000Y-173900D01*
X-359000Y-102000D02*
X-358995Y-101553D01*
X-358978Y-101106D01*
X-358951Y-100660D01*
X-358914Y-100214D01*
X-358865Y-99770D01*
X-358806Y-99327D01*
X-358736Y-98885D01*
X-358655Y-98446D01*
X-358564Y-98008D01*
X-358462Y-97573D01*
X-358350Y-97140D01*
X-358228Y-96710D01*
X-358095Y-96283D01*
X-357951Y-95860D01*
X-357798Y-95440D01*
X-357634Y-95024D01*
X-357461Y-94612D01*
X-357277Y-94204D01*
X-357084Y-93801D01*
X-356881Y-93403D01*
X-356668Y-93009D01*
X-356446Y-92621D01*
X-356215Y-92239D01*
X-355975Y-91862D01*
X-355725Y-91491D01*
X-355467Y-91126D01*
X-355200Y-90767D01*
X-354924Y-90416D01*
X-354640Y-90070D01*
X-354347Y-89732D01*
X-354047Y-89401D01*
X-353739Y-89078D01*
X-353422Y-88761D01*
X-353099Y-88453D01*
X-352768Y-88153D01*
X-352430Y-87860D01*
X-352084Y-87576D01*
X-351733Y-87300D01*
X-351374Y-87033D01*
X-351009Y-86775D01*
X-350638Y-86525D01*
X-350261Y-86285D01*
X-349879Y-86054D01*
X-349491Y-85832D01*
X-349097Y-85619D01*
X-348699Y-85416D01*
X-348296Y-85223D01*
X-347888Y-85039D01*
X-347476Y-84866D01*
X-347060Y-84702D01*
X-346640Y-84549D01*
X-346217Y-84405D01*
X-345790Y-84272D01*
X-345360Y-84150D01*
X-344927Y-84038D01*
X-344492Y-83936D01*
X-344054Y-83845D01*
X-343615Y-83764D01*
X-343173Y-83694D01*
X-342730Y-83635D01*
X-342286Y-83586D01*
X-341840Y-83549D01*
X-341394Y-83522D01*
X-340947Y-83505D01*
X-340500Y-83500D01*
X-334500Y-83500D01*
X-333956Y-83493D01*
X-333413Y-83474D01*
X-332870Y-83441D01*
X-332328Y-83395D01*
X-331788Y-83336D01*
X-331249Y-83264D01*
X-330712Y-83179D01*
X-330177Y-83081D01*
X-329645Y-82970D01*
X-329115Y-82846D01*
X-328589Y-82710D01*
X-328066Y-82561D01*
X-327547Y-82399D01*
X-327032Y-82225D01*
X-326521Y-82038D01*
X-326015Y-81839D01*
X-325514Y-81628D01*
X-325018Y-81405D01*
X-324528Y-81170D01*
X-324044Y-80923D01*
X-323565Y-80664D01*
X-323093Y-80394D01*
X-322628Y-80113D01*
X-322170Y-79821D01*
X-321719Y-79517D01*
X-321275Y-79203D01*
X-320839Y-78878D01*
X-320411Y-78543D01*
X-319991Y-78197D01*
X-319580Y-77841D01*
X-319177Y-77476D01*
X-318783Y-77101D01*
X-318399Y-76717D01*
X-318024Y-76323D01*
X-317659Y-75920D01*
X-317303Y-75509D01*
X-316957Y-75089D01*
X-316622Y-74661D01*
X-316297Y-74225D01*
X-315983Y-73781D01*
X-315679Y-73330D01*
X-315387Y-72872D01*
X-315106Y-72407D01*
X-314836Y-71935D01*
X-314577Y-71456D01*
X-314330Y-70972D01*
X-314095Y-70482D01*
X-313872Y-69986D01*
X-313661Y-69485D01*
X-313462Y-68979D01*
X-313275Y-68468D01*
X-313101Y-67953D01*
X-312939Y-67434D01*
X-312790Y-66911D01*
X-312654Y-66385D01*
X-312530Y-65855D01*
X-312419Y-65323D01*
X-312321Y-64788D01*
X-312236Y-64251D01*
X-312164Y-63712D01*
X-312105Y-63172D01*
X-312059Y-62630D01*
X-312026Y-62087D01*
X-312007Y-61544D01*
X-312000Y-61000D01*
X-312001Y-61000D02*
X-311993Y-60313D01*
X-311968Y-59627D01*
X-311926Y-58942D01*
X-311868Y-58258D01*
X-311794Y-57575D01*
X-311703Y-56894D01*
X-311596Y-56216D01*
X-311472Y-55541D01*
X-311332Y-54868D01*
X-311176Y-54200D01*
X-311004Y-53535D01*
X-310816Y-52875D01*
X-310611Y-52219D01*
X-310392Y-51569D01*
X-310156Y-50924D01*
X-309905Y-50285D01*
X-309639Y-49652D01*
X-309357Y-49025D01*
X-309060Y-48406D01*
X-308749Y-47794D01*
X-308423Y-47190D01*
X-308082Y-46594D01*
X-307727Y-46006D01*
X-307358Y-45427D01*
X-306975Y-44857D01*
X-306578Y-44296D01*
X-306168Y-43746D01*
X-305745Y-43205D01*
X-305309Y-42674D01*
X-304860Y-42155D01*
X-304399Y-41646D01*
X-303926Y-41149D01*
X-303441Y-40663D01*
X-302944Y-40189D01*
X-302436Y-39727D01*
X-301916Y-39277D01*
X-301387Y-38841D01*
X-300846Y-38417D01*
X-300296Y-38006D01*
X-299736Y-37609D01*
X-299167Y-37225D01*
X-298588Y-36855D01*
X-298001Y-36500D01*
X-298000Y-36500D02*
X-297874Y-36498D01*
X-297749Y-36492D01*
X-297624Y-36482D01*
X-297499Y-36468D01*
X-297374Y-36451D01*
X-297250Y-36429D01*
X-297127Y-36404D01*
X-297005Y-36374D01*
X-296884Y-36341D01*
X-296764Y-36304D01*
X-296645Y-36264D01*
X-296528Y-36219D01*
X-296411Y-36171D01*
X-296297Y-36119D01*
X-296184Y-36064D01*
X-296073Y-36005D01*
X-295964Y-35943D01*
X-295857Y-35877D01*
X-295752Y-35808D01*
X-295649Y-35736D01*
X-295548Y-35661D01*
X-295450Y-35582D01*
X-295355Y-35500D01*
X-295262Y-35416D01*
X-295172Y-35328D01*
X-295084Y-35238D01*
X-295000Y-35145D01*
X-294918Y-35050D01*
X-294839Y-34952D01*
X-294764Y-34851D01*
X-294692Y-34748D01*
X-294623Y-34643D01*
X-294557Y-34536D01*
X-294495Y-34427D01*
X-294436Y-34316D01*
X-294381Y-34203D01*
X-294329Y-34089D01*
X-294281Y-33972D01*
X-294236Y-33855D01*
X-294196Y-33736D01*
X-294159Y-33616D01*
X-294126Y-33495D01*
X-294096Y-33373D01*
X-294071Y-33250D01*
X-294049Y-33126D01*
X-294032Y-33001D01*
X-294018Y-32876D01*
X-294008Y-32751D01*
X-294002Y-32626D01*
X-294000Y-32500D01*
X-294000Y-12500D01*
X-293996Y-12174D01*
X-293984Y-11848D01*
X-293965Y-11522D01*
X-293937Y-11197D01*
X-293902Y-10873D01*
X-293858Y-10549D01*
X-293807Y-10227D01*
X-293748Y-9906D01*
X-293682Y-9587D01*
X-293608Y-9269D01*
X-293526Y-8953D01*
X-293436Y-8640D01*
X-293339Y-8328D01*
X-293235Y-8019D01*
X-293123Y-7713D01*
X-293003Y-7409D01*
X-292877Y-7109D01*
X-292743Y-6811D01*
X-292602Y-6517D01*
X-292454Y-6226D01*
X-292299Y-5939D01*
X-292137Y-5656D01*
X-291968Y-5377D01*
X-291792Y-5102D01*
X-291610Y-4831D01*
X-291422Y-4565D01*
X-291227Y-4303D01*
X-291026Y-4046D01*
X-290818Y-3795D01*
X-290605Y-3548D01*
X-290386Y-3306D01*
X-290161Y-3070D01*
X-289930Y-2839D01*
X-289694Y-2614D01*
X-289452Y-2395D01*
X-289205Y-2182D01*
X-288954Y-1974D01*
X-288697Y-1773D01*
X-288435Y-1578D01*
X-288169Y-1390D01*
X-287898Y-1208D01*
X-287623Y-1032D01*
X-287344Y-863D01*
X-287061Y-701D01*
X-286774Y-546D01*
X-286483Y-398D01*
X-286189Y-257D01*
X-285891Y-123D01*
X-285591Y3D01*
X-285287Y123D01*
X-284981Y235D01*
X-284672Y339D01*
X-284360Y436D01*
X-284047Y526D01*
X-283731Y608D01*
X-283413Y682D01*
X-283094Y748D01*
X-282773Y807D01*
X-282451Y858D01*
X-282127Y902D01*
X-281803Y937D01*
X-281478Y965D01*
X-281152Y984D01*
X-280826Y996D01*
X-280500Y1000D01*
X-270500Y1000D01*
X-359000Y-102000D02*
X-359000Y-173900D01*
D10*
X57000Y-13500D03*
D11*
X51500Y-8000D01*
X51500Y38000D01*
X37500Y52000D01*
X14500Y52000D01*
X-320000Y-31000D02*
X-336000Y-31000D01*
X-302000Y26500D02*
X-270500Y26500D01*
X-309500Y-20500D02*
X-320000Y-31000D01*
X-309500Y-20500D02*
X-309500Y19000D01*
X-302000Y26500D01*
X-314500Y79500D02*
X-335500Y79500D01*
X-307000Y87000D02*
X-307000Y112500D01*
X-296660Y122840D01*
X-76000Y45000D02*
X-76000Y-27000D01*
X-42000Y-61000D01*
X-41500Y-61000D01*
X-27000Y-75500D01*
X14500Y-75500D01*
X-307000Y87000D02*
X-314500Y79500D01*
X-296660Y122840D02*
X-153840Y122840D01*
X-76000Y45000D01*
X-270500Y-75500D02*
X-284500Y-89500D01*
X-305400Y-133900D02*
X-321500Y-133900D01*
X-284500Y-113000D02*
X-284500Y-89500D01*
X-284500Y-113000D02*
X-305400Y-133900D01*
D10*
X56000Y78500D03*
D11*
X15500Y78500D01*
X14500Y77500D01*
D10*
X153500Y-75500D03*
D11*
X164000Y-65000D02*
X164000Y-19400D01*
X164000Y-65000D02*
X153500Y-75500D01*
X-335500Y54000D02*
X-358500Y54000D01*
X-355500Y-56500D02*
X-336000Y-56500D01*
X-355500Y-56500D02*
X-363500Y-48500D01*
X-363500Y49000D02*
X-358500Y54000D01*
X-363500Y49000D02*
X-363500Y19500D01*
X-363500Y-48500D01*
X-363500Y19500D02*
X-336000Y19500D01*
X-314500Y41000D01*
X-314500Y55500D01*
X-292500Y77500D01*
X-270500Y77500D01*
X-252000Y77500D01*
X-248500Y81000D01*
X-270500Y77500D02*
X-270500Y103000D01*
X-248500Y103000D01*
X-248500Y81000D01*
X164000Y39500D02*
X164000Y6100D01*
D10*
X138500Y55000D03*
D11*
X148500Y55000D02*
X164000Y39500D01*
X148500Y55000D02*
X138500Y55000D01*
X-203000Y103000D02*
X-270500Y103000D01*
D10*
X-177000Y43500D03*
D11*
X-177000Y77000D02*
X-203000Y103000D01*
X-177000Y77000D02*
X-177000Y43500D01*
X-296000Y-74500D02*
X-321500Y-108400D01*
X-296000Y-74500D02*
X-294452Y-72491D01*
X-292858Y-70517D01*
X-291220Y-68581D01*
X-289537Y-66682D01*
X-287812Y-64823D01*
X-286044Y-63003D01*
X-284235Y-61225D01*
X-282386Y-59489D01*
X-280497Y-57795D01*
X-278570Y-56145D01*
X-276606Y-54540D01*
X-274605Y-52980D01*
X-272570Y-51467D01*
X-270500Y-50000D01*
M02*
