G04 EAGLE Gerber X2 export*
%TF.Part,Single*%
%TF.FileFunction,Copper,L1,Top,Mixed*%
%TF.FilePolarity,Positive*%
%TF.GenerationSoftware,Autodesk,EAGLE,8.6.0*%
%TF.CreationDate,2018-07-05T08:20:44Z*%
G75*
%MOMM*%
%FSLAX34Y34*%
%LPD*%
%AMOC8*
5,1,8,0,0,1.08239X$1,22.5*%
G01*
%ADD10C,1.700000*%
%ADD11C,0.800000*%


D10*
X14500Y103000D03*
X14500Y77500D03*
X14500Y52000D03*
X14500Y26500D03*
X14500Y1000D03*
X14500Y-24500D03*
X14500Y-50000D03*
X14500Y-75500D03*
X-270500Y103000D03*
X-270500Y77500D03*
X-270500Y52000D03*
X-270500Y26500D03*
X-270500Y1000D03*
X-270500Y-24500D03*
X-270500Y-50000D03*
X-270500Y-75500D03*
X94100Y-101100D03*
X94100Y-75600D03*
X94100Y-50100D03*
X94100Y-24600D03*
X94100Y900D03*
X94100Y26400D03*
X94100Y51900D03*
X94100Y77400D03*
X94100Y102900D03*
X-315400Y-192000D03*
X-340900Y-192000D03*
X164000Y6100D03*
X164000Y-19400D03*
X91250Y-156000D03*
X116750Y-156000D03*
X142250Y-156000D03*
X167750Y-156000D03*
X-321500Y-108400D03*
X-321500Y-133900D03*
X-336000Y-31000D03*
X-336000Y-5500D03*
X-336000Y-56500D03*
X-335500Y79500D03*
X-335500Y105000D03*
X-335500Y54000D03*
D11*
X116750Y-156000D02*
X116750Y-179750D01*
X108000Y-188500D01*
X-27500Y-188500D01*
D10*
X-101000Y-115000D03*
D11*
X-27500Y-188500D01*
X58100Y102900D02*
X94100Y102900D01*
X58100Y102900D02*
X58000Y103000D01*
D10*
X58000Y103000D03*
D11*
X68100Y-24600D02*
X94100Y-24600D01*
X68100Y-24600D02*
X57000Y-13500D01*
D10*
X57000Y-13500D03*
D11*
X86600Y900D02*
X94100Y900D01*
X66000Y68500D02*
X56000Y78500D01*
D10*
X56000Y78500D03*
D11*
X66000Y21500D02*
X86600Y900D01*
X66000Y21500D02*
X66000Y68500D01*
X94100Y-75600D02*
X149900Y-75600D01*
X150000Y-75500D01*
X153500Y-75500D01*
D10*
X153500Y-75500D03*
D11*
X94100Y-75600D02*
X76400Y-75600D01*
X66500Y-156000D02*
X91250Y-156000D01*
X55000Y-97000D02*
X76400Y-75600D01*
X55000Y-97000D02*
X55000Y-144500D01*
X66500Y-156000D01*
D10*
X138500Y55000D03*
D11*
X129500Y46000D01*
X114400Y-50100D02*
X94100Y-50100D01*
X129500Y-35000D02*
X129500Y46000D01*
X129500Y-35000D02*
X114400Y-50100D01*
X187000Y-136750D02*
X167750Y-156000D01*
X144500Y-50000D02*
X129500Y-35000D01*
X187000Y-64000D02*
X187000Y-136750D01*
X187000Y-64000D02*
X173000Y-50000D01*
X144500Y-50000D01*
X-280500Y-192000D02*
X-315400Y-192000D01*
X139500Y-213000D02*
X167500Y-185000D01*
X167500Y-156250D01*
X167750Y-156000D01*
X-259500Y-213000D02*
X-280500Y-192000D01*
X-259500Y-213000D02*
X-176500Y-213000D01*
X139500Y-213000D01*
D10*
X-177000Y43500D03*
D11*
X-177000Y-212500D01*
X-176500Y-213000D01*
M02*
