M48
;GenerationSoftware,Autodesk,EAGLE,8.6.0*%
;CreationDate,2018-07-05T08:20:44Z*%
FMAT,2
ICI,OFF
METRIC,TZ,000.000
T2C0.800
T1C0.900
%
G90
M71
T1
X1450Y-2450
X-27050Y7750
X-27050Y5200
X-27050Y2650
X-27050Y100
X-27050Y-2450
X-27050Y-5000
X1450Y10300
X1450Y7750
X1450Y5200
X1450Y2650
X1450Y100
X-27050Y-7550
X1450Y-5000
X1450Y-7550
X-27050Y10300
X-31540Y-19200
X-34090Y-19200
X16400Y610
X16400Y-1940
X9125Y-15600
X11675Y-15600
X14225Y-15600
X16775Y-15600
T2
X9410Y-7560
X9410Y-5010
X9410Y-2460
X9410Y90
X9410Y2640
X9410Y5190
X9410Y7740
X9410Y10290
X5800Y10300
X5700Y-1350
X5600Y7850
X15350Y-7550
X13850Y5500
X-10100Y-11500
X-17700Y4350
X9410Y-10110
X-32150Y-10840
X-32150Y-13390
X-33600Y-3100
X-33600Y-550
X-33600Y-5650
X-33550Y7950
X-33550Y10500
X-33550Y5400
M30