G04 EAGLE Gerber X2 export*
%TF.Part,Single*%
%TF.FileFunction,Legend,Top,1*%
%TF.FilePolarity,Positive*%
%TF.GenerationSoftware,Autodesk,EAGLE,8.6.0*%
%TF.CreationDate,2018-07-05T08:20:44Z*%
G75*
%MOMM*%
%FSLAX34Y34*%
%LPD*%
%AMOC8*
5,1,8,0,0,1.08239X$1,22.5*%
G01*
%ADD10C,0.152400*%
%ADD11C,0.127000*%


D10*
X-373238Y-115738D02*
X-373238Y-99482D01*
X-368722Y-99482D01*
X-368589Y-99484D01*
X-368457Y-99490D01*
X-368325Y-99500D01*
X-368193Y-99513D01*
X-368061Y-99531D01*
X-367931Y-99552D01*
X-367800Y-99577D01*
X-367671Y-99606D01*
X-367543Y-99639D01*
X-367415Y-99675D01*
X-367289Y-99715D01*
X-367164Y-99759D01*
X-367040Y-99807D01*
X-366918Y-99858D01*
X-366797Y-99913D01*
X-366678Y-99971D01*
X-366560Y-100033D01*
X-366445Y-100098D01*
X-366331Y-100167D01*
X-366220Y-100238D01*
X-366111Y-100314D01*
X-366004Y-100392D01*
X-365899Y-100473D01*
X-365797Y-100558D01*
X-365697Y-100645D01*
X-365600Y-100735D01*
X-365505Y-100828D01*
X-365414Y-100924D01*
X-365325Y-101022D01*
X-365239Y-101123D01*
X-365156Y-101227D01*
X-365076Y-101333D01*
X-365000Y-101441D01*
X-364926Y-101551D01*
X-364856Y-101664D01*
X-364789Y-101778D01*
X-364726Y-101895D01*
X-364666Y-102013D01*
X-364609Y-102133D01*
X-364556Y-102255D01*
X-364507Y-102378D01*
X-364461Y-102502D01*
X-364419Y-102628D01*
X-364381Y-102755D01*
X-364346Y-102883D01*
X-364315Y-103012D01*
X-364288Y-103141D01*
X-364265Y-103272D01*
X-364245Y-103403D01*
X-364230Y-103535D01*
X-364218Y-103667D01*
X-364210Y-103799D01*
X-364206Y-103932D01*
X-364206Y-104064D01*
X-364210Y-104197D01*
X-364218Y-104329D01*
X-364230Y-104461D01*
X-364245Y-104593D01*
X-364265Y-104724D01*
X-364288Y-104855D01*
X-364315Y-104984D01*
X-364346Y-105113D01*
X-364381Y-105241D01*
X-364419Y-105368D01*
X-364461Y-105494D01*
X-364507Y-105618D01*
X-364556Y-105741D01*
X-364609Y-105863D01*
X-364666Y-105983D01*
X-364726Y-106101D01*
X-364789Y-106218D01*
X-364856Y-106332D01*
X-364926Y-106445D01*
X-365000Y-106555D01*
X-365076Y-106663D01*
X-365156Y-106769D01*
X-365239Y-106873D01*
X-365325Y-106974D01*
X-365414Y-107072D01*
X-365505Y-107168D01*
X-365600Y-107261D01*
X-365697Y-107351D01*
X-365797Y-107438D01*
X-365899Y-107523D01*
X-366004Y-107604D01*
X-366111Y-107682D01*
X-366220Y-107758D01*
X-366331Y-107829D01*
X-366445Y-107898D01*
X-366560Y-107963D01*
X-366678Y-108025D01*
X-366797Y-108083D01*
X-366918Y-108138D01*
X-367040Y-108189D01*
X-367164Y-108237D01*
X-367289Y-108281D01*
X-367415Y-108321D01*
X-367543Y-108357D01*
X-367671Y-108390D01*
X-367800Y-108419D01*
X-367931Y-108444D01*
X-368061Y-108465D01*
X-368193Y-108483D01*
X-368325Y-108496D01*
X-368457Y-108506D01*
X-368589Y-108512D01*
X-368722Y-108514D01*
X-368722Y-108513D02*
X-373238Y-108513D01*
X-367819Y-108513D02*
X-364207Y-115738D01*
X-358601Y-115738D02*
X-347764Y-99482D01*
X-358601Y-99482D02*
X-347764Y-115738D01*
X-368222Y-126482D02*
X-368222Y-142738D01*
X-372738Y-126482D02*
X-363707Y-126482D01*
X-348215Y-126482D02*
X-359052Y-142738D01*
X-348215Y-142738D02*
X-359052Y-126482D01*
X-315518Y39762D02*
X-299262Y39762D01*
X-315518Y39762D02*
X-315518Y44278D01*
X-315516Y44411D01*
X-315510Y44543D01*
X-315500Y44675D01*
X-315487Y44807D01*
X-315469Y44939D01*
X-315448Y45069D01*
X-315423Y45200D01*
X-315394Y45329D01*
X-315361Y45457D01*
X-315325Y45585D01*
X-315285Y45711D01*
X-315241Y45836D01*
X-315193Y45960D01*
X-315142Y46082D01*
X-315087Y46203D01*
X-315029Y46322D01*
X-314967Y46440D01*
X-314902Y46555D01*
X-314833Y46669D01*
X-314762Y46780D01*
X-314686Y46889D01*
X-314608Y46996D01*
X-314527Y47101D01*
X-314442Y47203D01*
X-314355Y47303D01*
X-314265Y47400D01*
X-314172Y47495D01*
X-314076Y47586D01*
X-313978Y47675D01*
X-313877Y47761D01*
X-313773Y47844D01*
X-313667Y47924D01*
X-313559Y48000D01*
X-313449Y48074D01*
X-313336Y48144D01*
X-313222Y48211D01*
X-313105Y48274D01*
X-312987Y48334D01*
X-312867Y48391D01*
X-312745Y48444D01*
X-312622Y48493D01*
X-312498Y48539D01*
X-312372Y48581D01*
X-312245Y48619D01*
X-312117Y48654D01*
X-311988Y48685D01*
X-311859Y48712D01*
X-311728Y48735D01*
X-311597Y48755D01*
X-311465Y48770D01*
X-311333Y48782D01*
X-311201Y48790D01*
X-311068Y48794D01*
X-310936Y48794D01*
X-310803Y48790D01*
X-310671Y48782D01*
X-310539Y48770D01*
X-310407Y48755D01*
X-310276Y48735D01*
X-310145Y48712D01*
X-310016Y48685D01*
X-309887Y48654D01*
X-309759Y48619D01*
X-309632Y48581D01*
X-309506Y48539D01*
X-309382Y48493D01*
X-309259Y48444D01*
X-309137Y48391D01*
X-309017Y48334D01*
X-308899Y48274D01*
X-308782Y48211D01*
X-308668Y48144D01*
X-308555Y48074D01*
X-308445Y48000D01*
X-308337Y47924D01*
X-308231Y47844D01*
X-308127Y47761D01*
X-308026Y47675D01*
X-307928Y47586D01*
X-307832Y47495D01*
X-307739Y47400D01*
X-307649Y47303D01*
X-307562Y47203D01*
X-307477Y47101D01*
X-307396Y46996D01*
X-307318Y46889D01*
X-307242Y46780D01*
X-307171Y46669D01*
X-307102Y46555D01*
X-307037Y46440D01*
X-306975Y46322D01*
X-306917Y46203D01*
X-306862Y46082D01*
X-306811Y45960D01*
X-306763Y45836D01*
X-306719Y45711D01*
X-306679Y45585D01*
X-306643Y45457D01*
X-306610Y45329D01*
X-306581Y45200D01*
X-306556Y45069D01*
X-306535Y44939D01*
X-306517Y44807D01*
X-306504Y44675D01*
X-306494Y44543D01*
X-306488Y44411D01*
X-306486Y44278D01*
X-306487Y44278D02*
X-306487Y39762D01*
X-306487Y45181D02*
X-299262Y48793D01*
X-299262Y55853D02*
X-299262Y63077D01*
X-299262Y55853D02*
X-315518Y55853D01*
X-315518Y63077D01*
X-308293Y61271D02*
X-308293Y55853D01*
X-299262Y73746D02*
X-299264Y73864D01*
X-299270Y73982D01*
X-299279Y74100D01*
X-299293Y74217D01*
X-299310Y74334D01*
X-299331Y74451D01*
X-299356Y74566D01*
X-299385Y74681D01*
X-299418Y74795D01*
X-299454Y74907D01*
X-299494Y75018D01*
X-299537Y75128D01*
X-299584Y75237D01*
X-299634Y75344D01*
X-299689Y75449D01*
X-299746Y75552D01*
X-299807Y75653D01*
X-299871Y75753D01*
X-299938Y75850D01*
X-300008Y75945D01*
X-300082Y76037D01*
X-300158Y76128D01*
X-300238Y76215D01*
X-300320Y76300D01*
X-300405Y76382D01*
X-300492Y76462D01*
X-300583Y76538D01*
X-300675Y76612D01*
X-300770Y76682D01*
X-300867Y76749D01*
X-300967Y76813D01*
X-301068Y76874D01*
X-301171Y76931D01*
X-301276Y76986D01*
X-301383Y77036D01*
X-301492Y77083D01*
X-301602Y77126D01*
X-301713Y77166D01*
X-301825Y77202D01*
X-301939Y77235D01*
X-302054Y77264D01*
X-302169Y77289D01*
X-302286Y77310D01*
X-302403Y77327D01*
X-302520Y77341D01*
X-302638Y77350D01*
X-302756Y77356D01*
X-302874Y77358D01*
X-299262Y73746D02*
X-299264Y73563D01*
X-299271Y73381D01*
X-299282Y73199D01*
X-299297Y73017D01*
X-299317Y72835D01*
X-299340Y72654D01*
X-299369Y72474D01*
X-299401Y72294D01*
X-299438Y72115D01*
X-299479Y71938D01*
X-299525Y71761D01*
X-299574Y71585D01*
X-299628Y71411D01*
X-299686Y71237D01*
X-299748Y71066D01*
X-299814Y70896D01*
X-299885Y70727D01*
X-299959Y70560D01*
X-300037Y70395D01*
X-300119Y70232D01*
X-300205Y70071D01*
X-300295Y69912D01*
X-300389Y69755D01*
X-300486Y69601D01*
X-300587Y69449D01*
X-300692Y69299D01*
X-300800Y69152D01*
X-300911Y69008D01*
X-301026Y68866D01*
X-301145Y68727D01*
X-301267Y68591D01*
X-301392Y68458D01*
X-301520Y68328D01*
X-311906Y68780D02*
X-312024Y68782D01*
X-312142Y68788D01*
X-312260Y68797D01*
X-312377Y68811D01*
X-312494Y68828D01*
X-312611Y68849D01*
X-312726Y68874D01*
X-312841Y68903D01*
X-312955Y68936D01*
X-313067Y68972D01*
X-313178Y69012D01*
X-313288Y69055D01*
X-313397Y69102D01*
X-313504Y69152D01*
X-313609Y69207D01*
X-313712Y69264D01*
X-313813Y69325D01*
X-313913Y69389D01*
X-314010Y69456D01*
X-314105Y69526D01*
X-314197Y69600D01*
X-314288Y69676D01*
X-314375Y69756D01*
X-314460Y69838D01*
X-314542Y69923D01*
X-314622Y70010D01*
X-314698Y70101D01*
X-314772Y70193D01*
X-314842Y70288D01*
X-314909Y70385D01*
X-314973Y70485D01*
X-315034Y70586D01*
X-315092Y70689D01*
X-315146Y70794D01*
X-315196Y70901D01*
X-315243Y71010D01*
X-315287Y71120D01*
X-315326Y71231D01*
X-315362Y71344D01*
X-315395Y71457D01*
X-315424Y71572D01*
X-315449Y71687D01*
X-315470Y71804D01*
X-315487Y71921D01*
X-315501Y72038D01*
X-315510Y72156D01*
X-315516Y72274D01*
X-315518Y72392D01*
X-315516Y72553D01*
X-315510Y72715D01*
X-315501Y72876D01*
X-315487Y73037D01*
X-315470Y73197D01*
X-315449Y73357D01*
X-315424Y73517D01*
X-315395Y73676D01*
X-315363Y73834D01*
X-315327Y73991D01*
X-315287Y74147D01*
X-315243Y74303D01*
X-315195Y74457D01*
X-315144Y74610D01*
X-315090Y74762D01*
X-315031Y74913D01*
X-314970Y75062D01*
X-314904Y75209D01*
X-314835Y75355D01*
X-314763Y75500D01*
X-314687Y75642D01*
X-314608Y75783D01*
X-314526Y75922D01*
X-314440Y76058D01*
X-314351Y76193D01*
X-314259Y76326D01*
X-314163Y76456D01*
X-308745Y70585D02*
X-308807Y70484D01*
X-308872Y70384D01*
X-308941Y70287D01*
X-309013Y70192D01*
X-309087Y70099D01*
X-309165Y70009D01*
X-309246Y69921D01*
X-309329Y69836D01*
X-309415Y69754D01*
X-309504Y69675D01*
X-309595Y69598D01*
X-309689Y69525D01*
X-309785Y69454D01*
X-309883Y69387D01*
X-309983Y69323D01*
X-310086Y69262D01*
X-310190Y69205D01*
X-310296Y69151D01*
X-310404Y69101D01*
X-310513Y69054D01*
X-310624Y69010D01*
X-310736Y68970D01*
X-310850Y68934D01*
X-310964Y68902D01*
X-311080Y68873D01*
X-311196Y68848D01*
X-311313Y68827D01*
X-311431Y68810D01*
X-311549Y68796D01*
X-311668Y68787D01*
X-311787Y68781D01*
X-311906Y68779D01*
X-306035Y75553D02*
X-305973Y75654D01*
X-305908Y75754D01*
X-305839Y75851D01*
X-305767Y75946D01*
X-305693Y76039D01*
X-305615Y76129D01*
X-305534Y76217D01*
X-305451Y76302D01*
X-305365Y76384D01*
X-305276Y76463D01*
X-305185Y76540D01*
X-305091Y76613D01*
X-304995Y76684D01*
X-304897Y76751D01*
X-304797Y76815D01*
X-304694Y76876D01*
X-304590Y76933D01*
X-304484Y76987D01*
X-304376Y77037D01*
X-304267Y77084D01*
X-304156Y77128D01*
X-304044Y77168D01*
X-303930Y77204D01*
X-303816Y77236D01*
X-303700Y77265D01*
X-303584Y77290D01*
X-303467Y77311D01*
X-303349Y77328D01*
X-303231Y77342D01*
X-303112Y77351D01*
X-302993Y77357D01*
X-302874Y77359D01*
X-306035Y75553D02*
X-308745Y70585D01*
X-299262Y83989D02*
X-299262Y91214D01*
X-299262Y83989D02*
X-315518Y83989D01*
X-315518Y91214D01*
X-308293Y89407D02*
X-308293Y83989D01*
X-315518Y100458D02*
X-299262Y100458D01*
X-315518Y95943D02*
X-315518Y104974D01*
X-308293Y-59707D02*
X-308293Y-62416D01*
X-308293Y-59707D02*
X-299262Y-59707D01*
X-299262Y-65126D01*
X-299264Y-65244D01*
X-299270Y-65362D01*
X-299279Y-65480D01*
X-299293Y-65597D01*
X-299310Y-65714D01*
X-299331Y-65831D01*
X-299356Y-65946D01*
X-299385Y-66061D01*
X-299418Y-66175D01*
X-299454Y-66287D01*
X-299494Y-66398D01*
X-299537Y-66508D01*
X-299584Y-66617D01*
X-299634Y-66724D01*
X-299689Y-66829D01*
X-299746Y-66932D01*
X-299807Y-67033D01*
X-299871Y-67133D01*
X-299938Y-67230D01*
X-300008Y-67325D01*
X-300082Y-67417D01*
X-300158Y-67508D01*
X-300238Y-67595D01*
X-300320Y-67680D01*
X-300405Y-67762D01*
X-300492Y-67842D01*
X-300583Y-67918D01*
X-300675Y-67992D01*
X-300770Y-68062D01*
X-300867Y-68129D01*
X-300967Y-68193D01*
X-301068Y-68254D01*
X-301171Y-68311D01*
X-301276Y-68366D01*
X-301383Y-68416D01*
X-301492Y-68463D01*
X-301602Y-68506D01*
X-301713Y-68546D01*
X-301825Y-68582D01*
X-301939Y-68615D01*
X-302054Y-68644D01*
X-302169Y-68669D01*
X-302286Y-68690D01*
X-302403Y-68707D01*
X-302520Y-68721D01*
X-302638Y-68730D01*
X-302756Y-68736D01*
X-302874Y-68738D01*
X-311906Y-68738D01*
X-312024Y-68736D01*
X-312142Y-68730D01*
X-312260Y-68721D01*
X-312377Y-68707D01*
X-312494Y-68690D01*
X-312611Y-68669D01*
X-312726Y-68644D01*
X-312841Y-68615D01*
X-312955Y-68582D01*
X-313067Y-68546D01*
X-313178Y-68506D01*
X-313288Y-68463D01*
X-313397Y-68416D01*
X-313504Y-68366D01*
X-313609Y-68312D01*
X-313712Y-68254D01*
X-313813Y-68193D01*
X-313913Y-68129D01*
X-314010Y-68062D01*
X-314105Y-67992D01*
X-314197Y-67918D01*
X-314288Y-67842D01*
X-314375Y-67762D01*
X-314460Y-67680D01*
X-314542Y-67595D01*
X-314622Y-67508D01*
X-314698Y-67417D01*
X-314772Y-67325D01*
X-314842Y-67230D01*
X-314909Y-67133D01*
X-314973Y-67033D01*
X-315034Y-66932D01*
X-315091Y-66829D01*
X-315145Y-66724D01*
X-315196Y-66617D01*
X-315243Y-66508D01*
X-315286Y-66398D01*
X-315326Y-66287D01*
X-315362Y-66175D01*
X-315395Y-66061D01*
X-315424Y-65946D01*
X-315449Y-65831D01*
X-315470Y-65714D01*
X-315487Y-65597D01*
X-315501Y-65480D01*
X-315510Y-65362D01*
X-315516Y-65244D01*
X-315518Y-65126D01*
X-315518Y-59707D01*
X-315518Y-51854D02*
X-299262Y-51854D01*
X-315518Y-51854D02*
X-315518Y-47338D01*
X-315516Y-47205D01*
X-315510Y-47073D01*
X-315500Y-46941D01*
X-315487Y-46809D01*
X-315469Y-46677D01*
X-315448Y-46547D01*
X-315423Y-46416D01*
X-315394Y-46287D01*
X-315361Y-46159D01*
X-315325Y-46031D01*
X-315285Y-45905D01*
X-315241Y-45780D01*
X-315193Y-45656D01*
X-315142Y-45534D01*
X-315087Y-45413D01*
X-315029Y-45294D01*
X-314967Y-45176D01*
X-314902Y-45061D01*
X-314833Y-44947D01*
X-314762Y-44836D01*
X-314686Y-44727D01*
X-314608Y-44620D01*
X-314527Y-44515D01*
X-314442Y-44413D01*
X-314355Y-44313D01*
X-314265Y-44216D01*
X-314172Y-44121D01*
X-314076Y-44030D01*
X-313978Y-43941D01*
X-313877Y-43855D01*
X-313773Y-43772D01*
X-313667Y-43692D01*
X-313559Y-43616D01*
X-313449Y-43542D01*
X-313336Y-43472D01*
X-313222Y-43405D01*
X-313105Y-43342D01*
X-312987Y-43282D01*
X-312867Y-43225D01*
X-312745Y-43172D01*
X-312622Y-43123D01*
X-312498Y-43077D01*
X-312372Y-43035D01*
X-312245Y-42997D01*
X-312117Y-42962D01*
X-311988Y-42931D01*
X-311859Y-42904D01*
X-311728Y-42881D01*
X-311597Y-42861D01*
X-311465Y-42846D01*
X-311333Y-42834D01*
X-311201Y-42826D01*
X-311068Y-42822D01*
X-310936Y-42822D01*
X-310803Y-42826D01*
X-310671Y-42834D01*
X-310539Y-42846D01*
X-310407Y-42861D01*
X-310276Y-42881D01*
X-310145Y-42904D01*
X-310016Y-42931D01*
X-309887Y-42962D01*
X-309759Y-42997D01*
X-309632Y-43035D01*
X-309506Y-43077D01*
X-309382Y-43123D01*
X-309259Y-43172D01*
X-309137Y-43225D01*
X-309017Y-43282D01*
X-308899Y-43342D01*
X-308782Y-43405D01*
X-308668Y-43472D01*
X-308555Y-43542D01*
X-308445Y-43616D01*
X-308337Y-43692D01*
X-308231Y-43772D01*
X-308127Y-43855D01*
X-308026Y-43941D01*
X-307928Y-44030D01*
X-307832Y-44121D01*
X-307739Y-44216D01*
X-307649Y-44313D01*
X-307562Y-44413D01*
X-307477Y-44515D01*
X-307396Y-44620D01*
X-307318Y-44727D01*
X-307242Y-44836D01*
X-307171Y-44947D01*
X-307102Y-45061D01*
X-307037Y-45176D01*
X-306975Y-45294D01*
X-306917Y-45413D01*
X-306862Y-45534D01*
X-306811Y-45656D01*
X-306763Y-45780D01*
X-306719Y-45905D01*
X-306679Y-46031D01*
X-306643Y-46159D01*
X-306610Y-46287D01*
X-306581Y-46416D01*
X-306556Y-46547D01*
X-306535Y-46677D01*
X-306517Y-46809D01*
X-306504Y-46941D01*
X-306494Y-47073D01*
X-306488Y-47205D01*
X-306486Y-47338D01*
X-306487Y-47338D02*
X-306487Y-51854D01*
X-299262Y-35565D02*
X-315518Y-35565D01*
X-299262Y-37371D02*
X-299262Y-33759D01*
X-315518Y-33759D02*
X-315518Y-37371D01*
X-311002Y-27576D02*
X-303778Y-27576D01*
X-311002Y-27576D02*
X-311135Y-27574D01*
X-311267Y-27568D01*
X-311399Y-27558D01*
X-311531Y-27545D01*
X-311663Y-27527D01*
X-311793Y-27506D01*
X-311924Y-27481D01*
X-312053Y-27452D01*
X-312181Y-27419D01*
X-312309Y-27383D01*
X-312435Y-27343D01*
X-312560Y-27299D01*
X-312684Y-27251D01*
X-312806Y-27200D01*
X-312927Y-27145D01*
X-313046Y-27087D01*
X-313164Y-27025D01*
X-313279Y-26960D01*
X-313393Y-26891D01*
X-313504Y-26820D01*
X-313613Y-26744D01*
X-313720Y-26666D01*
X-313825Y-26585D01*
X-313927Y-26500D01*
X-314027Y-26413D01*
X-314124Y-26323D01*
X-314219Y-26230D01*
X-314310Y-26134D01*
X-314399Y-26036D01*
X-314485Y-25935D01*
X-314568Y-25831D01*
X-314648Y-25725D01*
X-314724Y-25617D01*
X-314798Y-25507D01*
X-314868Y-25394D01*
X-314935Y-25280D01*
X-314998Y-25163D01*
X-315058Y-25045D01*
X-315115Y-24925D01*
X-315168Y-24803D01*
X-315217Y-24680D01*
X-315263Y-24556D01*
X-315305Y-24430D01*
X-315343Y-24303D01*
X-315378Y-24175D01*
X-315409Y-24046D01*
X-315436Y-23917D01*
X-315459Y-23786D01*
X-315479Y-23655D01*
X-315494Y-23523D01*
X-315506Y-23391D01*
X-315514Y-23259D01*
X-315518Y-23126D01*
X-315518Y-22994D01*
X-315514Y-22861D01*
X-315506Y-22729D01*
X-315494Y-22597D01*
X-315479Y-22465D01*
X-315459Y-22334D01*
X-315436Y-22203D01*
X-315409Y-22074D01*
X-315378Y-21945D01*
X-315343Y-21817D01*
X-315305Y-21690D01*
X-315263Y-21564D01*
X-315217Y-21440D01*
X-315168Y-21317D01*
X-315115Y-21195D01*
X-315058Y-21075D01*
X-314998Y-20957D01*
X-314935Y-20840D01*
X-314868Y-20726D01*
X-314798Y-20613D01*
X-314724Y-20503D01*
X-314648Y-20395D01*
X-314568Y-20289D01*
X-314485Y-20185D01*
X-314399Y-20084D01*
X-314310Y-19986D01*
X-314219Y-19890D01*
X-314124Y-19797D01*
X-314027Y-19707D01*
X-313927Y-19620D01*
X-313825Y-19535D01*
X-313720Y-19454D01*
X-313613Y-19376D01*
X-313504Y-19300D01*
X-313393Y-19229D01*
X-313279Y-19160D01*
X-313164Y-19095D01*
X-313046Y-19033D01*
X-312927Y-18975D01*
X-312806Y-18920D01*
X-312684Y-18869D01*
X-312560Y-18821D01*
X-312435Y-18777D01*
X-312309Y-18737D01*
X-312181Y-18701D01*
X-312053Y-18668D01*
X-311924Y-18639D01*
X-311793Y-18614D01*
X-311663Y-18593D01*
X-311531Y-18575D01*
X-311399Y-18562D01*
X-311267Y-18552D01*
X-311135Y-18546D01*
X-311002Y-18544D01*
X-311002Y-18545D02*
X-303778Y-18545D01*
X-303778Y-18544D02*
X-303645Y-18546D01*
X-303513Y-18552D01*
X-303381Y-18562D01*
X-303249Y-18575D01*
X-303117Y-18593D01*
X-302987Y-18614D01*
X-302856Y-18639D01*
X-302727Y-18668D01*
X-302599Y-18701D01*
X-302471Y-18737D01*
X-302345Y-18777D01*
X-302220Y-18821D01*
X-302096Y-18869D01*
X-301974Y-18920D01*
X-301853Y-18975D01*
X-301734Y-19033D01*
X-301616Y-19095D01*
X-301501Y-19160D01*
X-301387Y-19229D01*
X-301276Y-19300D01*
X-301167Y-19376D01*
X-301060Y-19454D01*
X-300955Y-19535D01*
X-300853Y-19620D01*
X-300753Y-19707D01*
X-300656Y-19797D01*
X-300561Y-19890D01*
X-300470Y-19986D01*
X-300381Y-20084D01*
X-300295Y-20185D01*
X-300212Y-20289D01*
X-300132Y-20395D01*
X-300056Y-20503D01*
X-299982Y-20613D01*
X-299912Y-20726D01*
X-299845Y-20840D01*
X-299782Y-20957D01*
X-299722Y-21075D01*
X-299665Y-21195D01*
X-299612Y-21317D01*
X-299563Y-21440D01*
X-299517Y-21564D01*
X-299475Y-21690D01*
X-299437Y-21817D01*
X-299402Y-21945D01*
X-299371Y-22074D01*
X-299344Y-22203D01*
X-299321Y-22334D01*
X-299301Y-22465D01*
X-299286Y-22597D01*
X-299274Y-22729D01*
X-299266Y-22861D01*
X-299262Y-22994D01*
X-299262Y-23126D01*
X-299266Y-23259D01*
X-299274Y-23391D01*
X-299286Y-23523D01*
X-299301Y-23655D01*
X-299321Y-23786D01*
X-299344Y-23917D01*
X-299371Y-24046D01*
X-299402Y-24175D01*
X-299437Y-24303D01*
X-299475Y-24430D01*
X-299517Y-24556D01*
X-299563Y-24680D01*
X-299612Y-24803D01*
X-299665Y-24925D01*
X-299722Y-25045D01*
X-299782Y-25163D01*
X-299845Y-25280D01*
X-299912Y-25394D01*
X-299982Y-25507D01*
X-300056Y-25617D01*
X-300132Y-25725D01*
X-300212Y-25831D01*
X-300295Y-25935D01*
X-300381Y-26036D01*
X-300470Y-26134D01*
X-300561Y-26230D01*
X-300656Y-26323D01*
X-300753Y-26413D01*
X-300853Y-26500D01*
X-300955Y-26585D01*
X-301060Y-26666D01*
X-301167Y-26744D01*
X-301276Y-26820D01*
X-301387Y-26891D01*
X-301501Y-26960D01*
X-301616Y-27025D01*
X-301734Y-27087D01*
X-301853Y-27145D01*
X-301974Y-27200D01*
X-302096Y-27251D01*
X-302220Y-27299D01*
X-302345Y-27343D01*
X-302471Y-27383D01*
X-302599Y-27419D01*
X-302727Y-27452D01*
X-302856Y-27481D01*
X-302987Y-27506D01*
X-303117Y-27527D01*
X-303249Y-27545D01*
X-303381Y-27558D01*
X-303513Y-27568D01*
X-303645Y-27574D01*
X-303778Y-27576D01*
X-307390Y-11944D02*
X-307710Y-11940D01*
X-308029Y-11929D01*
X-308349Y-11910D01*
X-308667Y-11883D01*
X-308985Y-11849D01*
X-309302Y-11807D01*
X-309618Y-11757D01*
X-309933Y-11700D01*
X-310246Y-11636D01*
X-310558Y-11564D01*
X-310868Y-11485D01*
X-311175Y-11398D01*
X-311481Y-11304D01*
X-311784Y-11203D01*
X-312085Y-11094D01*
X-312383Y-10979D01*
X-312679Y-10856D01*
X-312971Y-10726D01*
X-313260Y-10589D01*
X-313261Y-10590D02*
X-313369Y-10551D01*
X-313476Y-10508D01*
X-313581Y-10462D01*
X-313685Y-10411D01*
X-313787Y-10358D01*
X-313887Y-10301D01*
X-313985Y-10240D01*
X-314080Y-10176D01*
X-314174Y-10109D01*
X-314265Y-10038D01*
X-314354Y-9965D01*
X-314440Y-9888D01*
X-314523Y-9809D01*
X-314604Y-9727D01*
X-314682Y-9642D01*
X-314756Y-9554D01*
X-314828Y-9464D01*
X-314896Y-9372D01*
X-314962Y-9277D01*
X-315024Y-9180D01*
X-315082Y-9081D01*
X-315138Y-8979D01*
X-315189Y-8877D01*
X-315237Y-8772D01*
X-315282Y-8666D01*
X-315323Y-8558D01*
X-315360Y-8449D01*
X-315393Y-8339D01*
X-315422Y-8227D01*
X-315448Y-8115D01*
X-315470Y-8002D01*
X-315487Y-7888D01*
X-315501Y-7774D01*
X-315511Y-7659D01*
X-315517Y-7544D01*
X-315519Y-7429D01*
X-315518Y-7429D02*
X-315516Y-7314D01*
X-315510Y-7199D01*
X-315500Y-7084D01*
X-315486Y-6970D01*
X-315469Y-6856D01*
X-315447Y-6743D01*
X-315421Y-6631D01*
X-315392Y-6519D01*
X-315359Y-6409D01*
X-315322Y-6300D01*
X-315281Y-6192D01*
X-315236Y-6086D01*
X-315188Y-5982D01*
X-315137Y-5879D01*
X-315081Y-5778D01*
X-315023Y-5678D01*
X-314961Y-5581D01*
X-314896Y-5487D01*
X-314827Y-5394D01*
X-314755Y-5304D01*
X-314681Y-5216D01*
X-314603Y-5131D01*
X-314522Y-5049D01*
X-314439Y-4970D01*
X-314353Y-4893D01*
X-314264Y-4820D01*
X-314173Y-4749D01*
X-314079Y-4682D01*
X-313984Y-4618D01*
X-313886Y-4557D01*
X-313786Y-4500D01*
X-313684Y-4447D01*
X-313580Y-4396D01*
X-313475Y-4350D01*
X-313368Y-4307D01*
X-313260Y-4268D01*
X-313260Y-4269D02*
X-312971Y-4132D01*
X-312679Y-4002D01*
X-312383Y-3879D01*
X-312085Y-3764D01*
X-311784Y-3655D01*
X-311481Y-3554D01*
X-311175Y-3460D01*
X-310868Y-3373D01*
X-310558Y-3294D01*
X-310246Y-3222D01*
X-309933Y-3158D01*
X-309618Y-3101D01*
X-309302Y-3051D01*
X-308985Y-3009D01*
X-308667Y-2975D01*
X-308349Y-2948D01*
X-308029Y-2929D01*
X-307710Y-2918D01*
X-307390Y-2914D01*
X-307390Y-11944D02*
X-307070Y-11940D01*
X-306751Y-11929D01*
X-306431Y-11910D01*
X-306113Y-11883D01*
X-305795Y-11849D01*
X-305478Y-11807D01*
X-305162Y-11757D01*
X-304847Y-11700D01*
X-304534Y-11636D01*
X-304222Y-11564D01*
X-303912Y-11485D01*
X-303605Y-11398D01*
X-303299Y-11304D01*
X-302996Y-11203D01*
X-302695Y-11094D01*
X-302397Y-10979D01*
X-302101Y-10856D01*
X-301809Y-10726D01*
X-301520Y-10589D01*
X-301520Y-10590D02*
X-301412Y-10551D01*
X-301305Y-10508D01*
X-301200Y-10462D01*
X-301096Y-10411D01*
X-300994Y-10358D01*
X-300894Y-10301D01*
X-300796Y-10240D01*
X-300701Y-10176D01*
X-300607Y-10109D01*
X-300516Y-10038D01*
X-300427Y-9965D01*
X-300341Y-9888D01*
X-300258Y-9809D01*
X-300177Y-9727D01*
X-300099Y-9642D01*
X-300025Y-9554D01*
X-299953Y-9464D01*
X-299884Y-9371D01*
X-299819Y-9277D01*
X-299757Y-9180D01*
X-299699Y-9080D01*
X-299643Y-8979D01*
X-299592Y-8877D01*
X-299544Y-8772D01*
X-299499Y-8666D01*
X-299458Y-8558D01*
X-299421Y-8449D01*
X-299388Y-8339D01*
X-299359Y-8227D01*
X-299333Y-8115D01*
X-299311Y-8002D01*
X-299294Y-7888D01*
X-299280Y-7774D01*
X-299270Y-7659D01*
X-299264Y-7544D01*
X-299262Y-7429D01*
X-301520Y-4269D02*
X-301809Y-4132D01*
X-302101Y-4002D01*
X-302397Y-3879D01*
X-302695Y-3764D01*
X-302996Y-3655D01*
X-303299Y-3554D01*
X-303605Y-3460D01*
X-303912Y-3373D01*
X-304222Y-3294D01*
X-304534Y-3222D01*
X-304847Y-3158D01*
X-305162Y-3101D01*
X-305478Y-3051D01*
X-305795Y-3009D01*
X-306113Y-2975D01*
X-306431Y-2948D01*
X-306751Y-2929D01*
X-307070Y-2918D01*
X-307390Y-2914D01*
X-301520Y-4268D02*
X-301412Y-4307D01*
X-301305Y-4350D01*
X-301200Y-4396D01*
X-301096Y-4447D01*
X-300994Y-4500D01*
X-300894Y-4558D01*
X-300796Y-4618D01*
X-300701Y-4682D01*
X-300607Y-4749D01*
X-300516Y-4820D01*
X-300427Y-4893D01*
X-300341Y-4970D01*
X-300258Y-5049D01*
X-300177Y-5131D01*
X-300099Y-5216D01*
X-300025Y-5304D01*
X-299953Y-5394D01*
X-299884Y-5487D01*
X-299819Y-5581D01*
X-299757Y-5678D01*
X-299699Y-5778D01*
X-299643Y-5879D01*
X-299592Y-5982D01*
X-299544Y-6086D01*
X-299499Y-6192D01*
X-299458Y-6300D01*
X-299421Y-6409D01*
X-299388Y-6519D01*
X-299359Y-6631D01*
X-299333Y-6743D01*
X-299311Y-6856D01*
X-299294Y-6970D01*
X-299280Y-7084D01*
X-299270Y-7199D01*
X-299264Y-7314D01*
X-299262Y-7429D01*
X-302874Y-11041D02*
X-311906Y-3817D01*
X-363707Y54793D02*
X-366416Y54793D01*
X-363707Y54793D02*
X-363707Y45762D01*
X-369126Y45762D01*
X-369244Y45764D01*
X-369362Y45770D01*
X-369480Y45779D01*
X-369597Y45793D01*
X-369714Y45810D01*
X-369831Y45831D01*
X-369946Y45856D01*
X-370061Y45885D01*
X-370175Y45918D01*
X-370287Y45954D01*
X-370398Y45994D01*
X-370508Y46037D01*
X-370617Y46084D01*
X-370724Y46134D01*
X-370829Y46189D01*
X-370932Y46246D01*
X-371033Y46307D01*
X-371133Y46371D01*
X-371230Y46438D01*
X-371325Y46508D01*
X-371417Y46582D01*
X-371508Y46658D01*
X-371595Y46738D01*
X-371680Y46820D01*
X-371762Y46905D01*
X-371842Y46992D01*
X-371918Y47083D01*
X-371992Y47175D01*
X-372062Y47270D01*
X-372129Y47367D01*
X-372193Y47467D01*
X-372254Y47568D01*
X-372311Y47671D01*
X-372366Y47776D01*
X-372416Y47883D01*
X-372463Y47992D01*
X-372506Y48102D01*
X-372546Y48213D01*
X-372582Y48325D01*
X-372615Y48439D01*
X-372644Y48554D01*
X-372669Y48669D01*
X-372690Y48786D01*
X-372707Y48903D01*
X-372721Y49020D01*
X-372730Y49138D01*
X-372736Y49256D01*
X-372738Y49374D01*
X-372738Y58406D01*
X-372736Y58524D01*
X-372730Y58642D01*
X-372721Y58760D01*
X-372707Y58877D01*
X-372690Y58994D01*
X-372669Y59111D01*
X-372644Y59226D01*
X-372615Y59341D01*
X-372582Y59455D01*
X-372546Y59567D01*
X-372506Y59678D01*
X-372463Y59788D01*
X-372416Y59897D01*
X-372366Y60004D01*
X-372311Y60109D01*
X-372254Y60212D01*
X-372193Y60313D01*
X-372129Y60413D01*
X-372062Y60510D01*
X-371992Y60605D01*
X-371918Y60697D01*
X-371842Y60788D01*
X-371762Y60875D01*
X-371680Y60960D01*
X-371595Y61042D01*
X-371508Y61122D01*
X-371417Y61198D01*
X-371325Y61272D01*
X-371230Y61342D01*
X-371133Y61409D01*
X-371033Y61473D01*
X-370932Y61534D01*
X-370829Y61591D01*
X-370724Y61646D01*
X-370617Y61696D01*
X-370508Y61743D01*
X-370398Y61786D01*
X-370287Y61826D01*
X-370175Y61862D01*
X-370061Y61895D01*
X-369946Y61924D01*
X-369831Y61949D01*
X-369714Y61970D01*
X-369597Y61987D01*
X-369480Y62001D01*
X-369362Y62010D01*
X-369244Y62016D01*
X-369126Y62018D01*
X-363707Y62018D01*
X-364707Y-55707D02*
X-367416Y-55707D01*
X-364707Y-55707D02*
X-364707Y-64738D01*
X-370126Y-64738D01*
X-370244Y-64736D01*
X-370362Y-64730D01*
X-370480Y-64721D01*
X-370597Y-64707D01*
X-370714Y-64690D01*
X-370831Y-64669D01*
X-370946Y-64644D01*
X-371061Y-64615D01*
X-371175Y-64582D01*
X-371287Y-64546D01*
X-371398Y-64506D01*
X-371508Y-64463D01*
X-371617Y-64416D01*
X-371724Y-64366D01*
X-371829Y-64311D01*
X-371932Y-64254D01*
X-372033Y-64193D01*
X-372133Y-64129D01*
X-372230Y-64062D01*
X-372325Y-63992D01*
X-372417Y-63918D01*
X-372508Y-63842D01*
X-372595Y-63762D01*
X-372680Y-63680D01*
X-372762Y-63595D01*
X-372842Y-63508D01*
X-372918Y-63417D01*
X-372992Y-63325D01*
X-373062Y-63230D01*
X-373129Y-63133D01*
X-373193Y-63033D01*
X-373254Y-62932D01*
X-373311Y-62829D01*
X-373366Y-62724D01*
X-373416Y-62617D01*
X-373463Y-62508D01*
X-373506Y-62398D01*
X-373546Y-62287D01*
X-373582Y-62175D01*
X-373615Y-62061D01*
X-373644Y-61946D01*
X-373669Y-61831D01*
X-373690Y-61714D01*
X-373707Y-61597D01*
X-373721Y-61480D01*
X-373730Y-61362D01*
X-373736Y-61244D01*
X-373738Y-61126D01*
X-373738Y-52094D01*
X-373739Y-52094D02*
X-373737Y-51976D01*
X-373731Y-51858D01*
X-373722Y-51740D01*
X-373708Y-51622D01*
X-373691Y-51505D01*
X-373670Y-51389D01*
X-373645Y-51274D01*
X-373616Y-51159D01*
X-373583Y-51045D01*
X-373547Y-50933D01*
X-373507Y-50821D01*
X-373464Y-50711D01*
X-373417Y-50603D01*
X-373366Y-50496D01*
X-373312Y-50391D01*
X-373255Y-50288D01*
X-373194Y-50186D01*
X-373130Y-50087D01*
X-373063Y-49990D01*
X-372992Y-49895D01*
X-372919Y-49802D01*
X-372842Y-49712D01*
X-372763Y-49624D01*
X-372681Y-49539D01*
X-372596Y-49457D01*
X-372508Y-49378D01*
X-372418Y-49301D01*
X-372325Y-49228D01*
X-372231Y-49157D01*
X-372133Y-49090D01*
X-372034Y-49026D01*
X-371933Y-48965D01*
X-371829Y-48908D01*
X-371724Y-48854D01*
X-371617Y-48803D01*
X-371509Y-48756D01*
X-371399Y-48713D01*
X-371287Y-48673D01*
X-371175Y-48637D01*
X-371061Y-48604D01*
X-370946Y-48575D01*
X-370831Y-48550D01*
X-370715Y-48529D01*
X-370598Y-48512D01*
X-370480Y-48498D01*
X-370362Y-48489D01*
X-370244Y-48483D01*
X-370126Y-48481D01*
X-370126Y-48482D02*
X-364707Y-48482D01*
X-372738Y98262D02*
X-372738Y114518D01*
X-365513Y114518D01*
X-365513Y107293D02*
X-372738Y107293D01*
X-371738Y3518D02*
X-371738Y-12738D01*
X-371738Y3518D02*
X-364513Y3518D01*
X-364513Y-3707D02*
X-371738Y-3707D01*
X186262Y-23416D02*
X197099Y-23416D01*
X191681Y-28835D02*
X191681Y-17998D01*
X188262Y10584D02*
X199099Y10584D01*
X-365273Y-209762D02*
X-359854Y-226018D01*
X-354435Y-209762D01*
X-348599Y-219696D02*
X-337762Y-219696D01*
X-343181Y-214278D02*
X-343181Y-225115D01*
X-316238Y-209982D02*
X-310819Y-226238D01*
X-305401Y-209982D01*
X-299565Y-219916D02*
X-288727Y-219916D01*
D11*
X-284500Y117500D02*
X-281500Y117500D01*
X-303100Y-179300D02*
X-353900Y-179300D01*
X-353900Y-204700D01*
X-303100Y-204700D01*
X-303100Y-179300D01*
X151300Y-32400D02*
X151300Y18400D01*
X151300Y-32400D02*
X176700Y-32400D01*
X176700Y18400D01*
X151300Y18400D01*
X78500Y-141000D02*
X78500Y-171000D01*
X180500Y-171000D01*
X180500Y-141000D01*
X78500Y-141000D01*
X-334200Y-146900D02*
X-334200Y-96100D01*
X-334200Y-146900D02*
X-308800Y-146900D01*
X-308800Y-96100D01*
X-334200Y-96100D01*
X-324500Y6000D02*
X-347000Y6000D01*
X-324500Y6000D02*
X-324500Y-69000D01*
X-347000Y-69000D01*
X-347000Y6000D01*
X-346500Y116500D02*
X-324000Y116500D01*
X-324000Y41500D01*
X-346500Y41500D01*
X-346500Y116500D01*
M02*
