G04 EAGLE Gerber X2 export*
%TF.Part,Single*%
%TF.FileFunction,Soldermask,Top,1*%
%TF.FilePolarity,Negative*%
%TF.GenerationSoftware,Autodesk,EAGLE,8.6.0*%
%TF.CreationDate,2018-07-05T08:20:44Z*%
G75*
%MOMM*%
%FSLAX34Y34*%
%LPD*%
%AMOC8*
5,1,8,0,0,1.08239X$1,22.5*%
G01*
%ADD10C,1.903200*%


D10*
X14500Y103000D03*
X14500Y77500D03*
X14500Y52000D03*
X14500Y26500D03*
X14500Y1000D03*
X14500Y-24500D03*
X14500Y-50000D03*
X14500Y-75500D03*
X-270500Y103000D03*
X-270500Y77500D03*
X-270500Y52000D03*
X-270500Y26500D03*
X-270500Y1000D03*
X-270500Y-24500D03*
X-270500Y-50000D03*
X-270500Y-75500D03*
X94100Y-101100D03*
X94100Y-75600D03*
X94100Y-50100D03*
X94100Y-24600D03*
X94100Y900D03*
X94100Y26400D03*
X94100Y51900D03*
X94100Y77400D03*
X94100Y102900D03*
X-315400Y-192000D03*
X-340900Y-192000D03*
X164000Y6100D03*
X164000Y-19400D03*
X91250Y-156000D03*
X116750Y-156000D03*
X142250Y-156000D03*
X167750Y-156000D03*
X-321500Y-108400D03*
X-321500Y-133900D03*
X-336000Y-31000D03*
X-336000Y-5500D03*
X-336000Y-56500D03*
X-335500Y79500D03*
X-335500Y105000D03*
X-335500Y54000D03*
X-101000Y-115000D03*
X58000Y103000D03*
X57000Y-13500D03*
X56000Y78500D03*
X153500Y-75500D03*
X138500Y55000D03*
X-177000Y43500D03*
M02*
