G04 EAGLE Gerber X2 export*
%TF.Part,Single*%
%TF.FileFunction,Copper,L1,Top,Mixed*%
%TF.FilePolarity,Positive*%
%TF.GenerationSoftware,Autodesk,EAGLE,8.6.0*%
%TF.CreationDate,2018-07-05T08:11:20Z*%
G75*
%MOMM*%
%FSLAX34Y34*%
%LPD*%
%AMOC8*
5,1,8,0,0,1.08239X$1,22.5*%
G01*
%ADD10C,1.320800*%
%ADD11C,1.700000*%
%ADD12P,1.814519X8X292.500000*%
%ADD13C,0.800000*%
%ADD14C,0.900000*%


D10*
X826296Y211100D02*
X839504Y211100D01*
X839504Y185700D02*
X826296Y185700D01*
X826296Y58700D02*
X839504Y58700D01*
X839504Y33300D02*
X826296Y33300D01*
X826296Y160300D02*
X839504Y160300D01*
X839504Y134900D02*
X826296Y134900D01*
X826296Y84100D02*
X839504Y84100D01*
X839504Y109500D02*
X826296Y109500D01*
X826296Y7900D02*
X839504Y7900D01*
X839504Y-17500D02*
X826296Y-17500D01*
X826296Y-42900D02*
X839504Y-42900D01*
X839504Y-68300D02*
X826296Y-68300D01*
X826296Y-93700D02*
X839504Y-93700D01*
X839504Y-119100D02*
X826296Y-119100D01*
X902496Y-119100D02*
X915704Y-119100D01*
X915704Y-93700D02*
X902496Y-93700D01*
X902496Y-68300D02*
X915704Y-68300D01*
X915704Y-42900D02*
X902496Y-42900D01*
X902496Y-17500D02*
X915704Y-17500D01*
X915704Y7900D02*
X902496Y7900D01*
X902496Y33300D02*
X915704Y33300D01*
X915704Y58700D02*
X902496Y58700D01*
X902496Y84100D02*
X915704Y84100D01*
X915704Y109500D02*
X902496Y109500D01*
X902496Y134900D02*
X915704Y134900D01*
X915704Y160300D02*
X902496Y160300D01*
X902496Y185700D02*
X915704Y185700D01*
X915704Y211100D02*
X902496Y211100D01*
D11*
X764500Y87600D03*
X764500Y62100D03*
X756500Y-149000D03*
X782000Y-149000D03*
X731000Y-149000D03*
X1032500Y-110000D03*
X1058000Y-110000D03*
X1007000Y-110000D03*
X1032000Y-156000D03*
X1057500Y-156000D03*
X1006500Y-156000D03*
X770000Y185500D03*
X770000Y211000D03*
X770000Y160000D03*
X954000Y102750D03*
X954000Y128250D03*
X954000Y153750D03*
X954000Y179250D03*
X954000Y204250D03*
X954000Y77750D03*
X954000Y52250D03*
X1001000Y215300D03*
X1001000Y113700D03*
X1039000Y214800D03*
X1039000Y113200D03*
D12*
X714000Y-70300D03*
X714000Y-95700D03*
D11*
X781000Y-64630D03*
X781000Y-16370D03*
X707500Y144000D03*
X662500Y144000D03*
X662500Y209000D03*
X707500Y209000D03*
D12*
X714500Y-5300D03*
X714500Y-30700D03*
D11*
X953100Y-165000D03*
X927600Y-165000D03*
D13*
X954000Y52250D02*
X909100Y58700D01*
X978500Y192800D02*
X1001000Y215300D01*
X978500Y192800D02*
X974000Y188500D01*
X964750Y179250D01*
X954000Y179250D01*
X998950Y153750D02*
X1039000Y214800D01*
X998950Y153750D02*
X954000Y153750D01*
D11*
X870500Y-162500D03*
X871500Y82000D03*
D14*
X871500Y-161500D01*
D13*
X870500Y-162500D01*
D11*
X1019000Y87500D03*
D13*
X954000Y204250D02*
X954000Y218500D01*
X974500Y239000D02*
X1050000Y239000D01*
X1073500Y215500D01*
X1073500Y107500D02*
X1053000Y87000D01*
X1019500Y87000D01*
X1019000Y87500D01*
X954000Y218500D02*
X974500Y239000D01*
X1073500Y215500D02*
X1073500Y107500D01*
X954000Y204250D02*
X954000Y226500D01*
X953996Y226790D01*
X953986Y227080D01*
X953968Y227369D01*
X953944Y227658D01*
X953913Y227946D01*
X953874Y228234D01*
X953829Y228520D01*
X953776Y228806D01*
X953717Y229089D01*
X953651Y229372D01*
X953579Y229652D01*
X953499Y229931D01*
X953413Y230208D01*
X953320Y230483D01*
X953220Y230755D01*
X953114Y231025D01*
X953002Y231292D01*
X952882Y231557D01*
X952757Y231818D01*
X952625Y232077D01*
X952488Y232332D01*
X952344Y232584D01*
X952194Y232832D01*
X952038Y233076D01*
X951876Y233317D01*
X951708Y233553D01*
X951535Y233786D01*
X951356Y234014D01*
X951172Y234238D01*
X950982Y234457D01*
X950787Y234672D01*
X950587Y234882D01*
X950382Y235087D01*
X950172Y235287D01*
X949957Y235482D01*
X949738Y235672D01*
X949514Y235856D01*
X949286Y236035D01*
X949053Y236208D01*
X948817Y236376D01*
X948576Y236538D01*
X948332Y236694D01*
X948084Y236844D01*
X947832Y236988D01*
X947577Y237125D01*
X947318Y237257D01*
X947057Y237382D01*
X946792Y237502D01*
X946525Y237614D01*
X946255Y237720D01*
X945983Y237820D01*
X945708Y237913D01*
X945431Y237999D01*
X945152Y238079D01*
X944872Y238151D01*
X944589Y238217D01*
X944306Y238276D01*
X944020Y238329D01*
X943734Y238374D01*
X943446Y238413D01*
X943158Y238444D01*
X942869Y238468D01*
X942580Y238486D01*
X942290Y238496D01*
X942000Y238500D01*
X871500Y221000D02*
X871500Y82000D01*
X871500Y221000D02*
X871505Y221423D01*
X871520Y221845D01*
X871546Y222268D01*
X871582Y222689D01*
X871628Y223109D01*
X871684Y223529D01*
X871750Y223946D01*
X871826Y224362D01*
X871912Y224776D01*
X872009Y225188D01*
X872115Y225597D01*
X872231Y226004D01*
X872357Y226408D01*
X872492Y226808D01*
X872637Y227206D01*
X872792Y227599D01*
X872956Y227989D01*
X873130Y228375D01*
X873313Y228756D01*
X873505Y229133D01*
X873706Y229505D01*
X873916Y229872D01*
X874134Y230234D01*
X874362Y230590D01*
X874598Y230941D01*
X874842Y231286D01*
X875095Y231625D01*
X875356Y231958D01*
X875624Y232285D01*
X875901Y232605D01*
X876185Y232918D01*
X876477Y233224D01*
X876776Y233523D01*
X877082Y233815D01*
X877395Y234099D01*
X877715Y234376D01*
X878042Y234644D01*
X878375Y234905D01*
X878714Y235158D01*
X879059Y235402D01*
X879410Y235638D01*
X879766Y235866D01*
X880128Y236084D01*
X880495Y236294D01*
X880867Y236495D01*
X881244Y236687D01*
X881625Y236870D01*
X882011Y237044D01*
X882401Y237208D01*
X882794Y237363D01*
X883192Y237508D01*
X883592Y237643D01*
X883996Y237769D01*
X884403Y237885D01*
X884812Y237991D01*
X885224Y238088D01*
X885638Y238174D01*
X886054Y238250D01*
X886471Y238316D01*
X886891Y238372D01*
X887311Y238418D01*
X887732Y238454D01*
X888155Y238480D01*
X888577Y238495D01*
X889000Y238500D01*
X942000Y238500D01*
M02*
