M48
;GenerationSoftware,Autodesk,EAGLE,8.6.0*%
;CreationDate,2018-07-05T08:11:00Z*%
FMAT,2
ICI,OFF
METRIC,TZ,000.000
T2C0.800
T1C0.813
%
G90
M71
T1
X83290Y13490
X90910Y16030
X90910Y18570
X83290Y21110
X83290Y18570
X83290Y5870
X83290Y3330
X83290Y16030
X83290Y-11910
X83290Y8410
X83290Y10950
X83290Y790
X83290Y-1750
X83290Y-4290
X83290Y-6830
X83290Y-9370
X90910Y21110
X90910Y-11910
X90910Y-9370
X90910Y-6830
X90910Y-4290
X90910Y-1750
X90910Y790
X90910Y3330
X90910Y5870
X90910Y8410
X90910Y10950
X90910Y13490
X78100Y-1637
X71400Y-7030
X71400Y-9570
X78100Y-6463
X71450Y-530
X71450Y-3070
T2
X78200Y-14900
X73100Y-14900
X103250Y-11000
X105800Y-11000
X100700Y-11000
X103200Y-15600
X105750Y-15600
X100650Y-15600
X77000Y18550
X77000Y21100
X77000Y16000
X95400Y10275
X95400Y12825
X95400Y15375
X95400Y17925
X95400Y20425
X95400Y7775
X87150Y8200
X100100Y21530
X100100Y11370
X103900Y21480
X103900Y11320
X101900Y8750
X87050Y-16250
X76450Y8760
X95400Y5225
X70750Y14400
X66250Y14400
X66250Y20900
X70750Y20900
X76450Y6210
X75650Y-14900
X95310Y-16500
X92760Y-16500
M30