G04 EAGLE Gerber X2 export*
%TF.Part,Single*%
%TF.FileFunction,Soldermask,Bot,1*%
%TF.FilePolarity,Negative*%
%TF.GenerationSoftware,Autodesk,EAGLE,8.6.0*%
%TF.CreationDate,2018-07-05T08:12:54Z*%
G75*
%MOMM*%
%FSLAX34Y34*%
%LPD*%
%AMOC8*
5,1,8,0,0,1.08239X$1,22.5*%
G01*
%ADD10C,1.524000*%
%ADD11C,1.903200*%
%ADD12P,2.034460X8X292.500000*%


D10*
X826296Y211100D02*
X839504Y211100D01*
X839504Y185700D02*
X826296Y185700D01*
X826296Y58700D02*
X839504Y58700D01*
X839504Y33300D02*
X826296Y33300D01*
X826296Y160300D02*
X839504Y160300D01*
X839504Y134900D02*
X826296Y134900D01*
X826296Y84100D02*
X839504Y84100D01*
X839504Y109500D02*
X826296Y109500D01*
X826296Y7900D02*
X839504Y7900D01*
X839504Y-17500D02*
X826296Y-17500D01*
X826296Y-42900D02*
X839504Y-42900D01*
X839504Y-68300D02*
X826296Y-68300D01*
X826296Y-93700D02*
X839504Y-93700D01*
X839504Y-119100D02*
X826296Y-119100D01*
X902496Y-119100D02*
X915704Y-119100D01*
X915704Y-93700D02*
X902496Y-93700D01*
X902496Y-68300D02*
X915704Y-68300D01*
X915704Y-42900D02*
X902496Y-42900D01*
X902496Y-17500D02*
X915704Y-17500D01*
X915704Y7900D02*
X902496Y7900D01*
X902496Y33300D02*
X915704Y33300D01*
X915704Y58700D02*
X902496Y58700D01*
X902496Y84100D02*
X915704Y84100D01*
X915704Y109500D02*
X902496Y109500D01*
X902496Y134900D02*
X915704Y134900D01*
X915704Y160300D02*
X902496Y160300D01*
X902496Y185700D02*
X915704Y185700D01*
X915704Y211100D02*
X902496Y211100D01*
D11*
X764500Y87600D03*
X764500Y62100D03*
X756500Y-149000D03*
X782000Y-149000D03*
X731000Y-149000D03*
X1032500Y-110000D03*
X1058000Y-110000D03*
X1007000Y-110000D03*
X1032000Y-156000D03*
X1057500Y-156000D03*
X1006500Y-156000D03*
X770000Y185500D03*
X770000Y211000D03*
X770000Y160000D03*
X954000Y102750D03*
X954000Y128250D03*
X954000Y153750D03*
X954000Y179250D03*
X954000Y204250D03*
X954000Y77750D03*
X954000Y52250D03*
X1001000Y215300D03*
X1001000Y113700D03*
X1039000Y214800D03*
X1039000Y113200D03*
D12*
X714000Y-70300D03*
X714000Y-95700D03*
D11*
X781000Y-64630D03*
X781000Y-16370D03*
X707500Y144000D03*
X662500Y144000D03*
X662500Y209000D03*
X707500Y209000D03*
D12*
X714500Y-5300D03*
X714500Y-30700D03*
D11*
X953100Y-165000D03*
X927600Y-165000D03*
X870500Y-162500D03*
X871500Y82000D03*
X1019000Y87500D03*
M02*
